<svg width="130" height="65" viewBox="0 0 130 65" fill="none" xmlns="http://www.w3.org/2000/svg">
<path id="Vector" d="M0.287262 51.7381C0.287262 56.3944 1.92255 60.6704 4.64544 64.0269H117.298C117.628 63.8523 117.95 63.666 118.273 63.472C125.222 59.2736 129.863 51.6527 129.863 42.9493C129.863 29.7098 119.119 18.9653 105.866 18.9653H105.583C104.231 11.7054 97.8567 6.22257 90.1969 6.22257C86.5379 6.22257 83.1702 7.47588 80.5056 9.5751C79.4724 10.3822 78.5479 11.3135 77.7594 12.3573C77.002 11.0457 76.1241 9.8118 75.1336 8.68265C70.8532 3.78187 64.5451 0.693192 57.53 0.693192C46.6696 0.693192 37.5531 8.08122 34.9235 18.1039C34.8069 18.523 34.7098 18.9576 34.6127 19.3883C33.6883 19.1167 32.7055 18.9692 31.684 18.9692C25.9119 18.9692 21.2314 23.6449 21.2314 29.411C21.2314 30.4044 21.3673 31.355 21.6198 32.2591C21.0566 32.2009 20.47 32.1699 19.8874 32.1699C18.524 32.1699 17.1917 32.3057 15.9176 32.5773C6.99155 34.4166 0.287262 42.3013 0.287262 51.7381Z" fill="white"/>
</svg>
