<svg width="109" height="48" viewBox="0 0 109 48" fill="none" xmlns="http://www.w3.org/2000/svg">
<path id="Vector" d="M102.387 34.9695C101.71 34.9695 101.06 35.0726 100.452 35.2698C100.562 34.6935 100.616 34.1019 100.616 33.4953C100.616 27.9382 96.1043 23.4367 90.5414 23.4367C87.3925 23.4367 84.5776 24.8805 82.7314 27.1404C81.2861 19.9695 74.9489 14.5732 67.3424 14.5732C64.148 14.5732 61.1722 15.5256 58.6945 17.1667C58.7279 16.8967 58.743 16.6207 58.743 16.3386C58.743 12.4195 55.5638 9.23748 51.6406 9.23748C50.6599 9.23748 49.7216 9.43464 48.8653 9.79865C48.5495 4.41443 44.0767 0.143448 38.608 0.143448C34.949 0.143448 31.7363 2.0575 29.9144 4.94223C28.0045 4.05345 25.8728 3.56205 23.6258 3.56205C15.3483 3.56205 8.64065 10.2628 8.64065 18.5317C8.64065 20.5337 9.03539 22.4417 9.75201 24.1828C4.21038 25.1505 0.00482178 29.9826 0.00482178 35.7946C0.00482178 42.3133 5.29137 47.5944 11.8168 47.5944H102.387C105.876 47.5944 108.706 44.7703 108.706 41.2819C108.706 37.7936 105.879 34.9695 102.387 34.9695Z" fill="white"/>
</svg>
