<svg width="96" height="58" viewBox="0 0 96 58" fill="none" xmlns="http://www.w3.org/2000/svg">
<path id="Vector" d="M83.7356 27.7367C82.8763 27.7337 82.0382 27.8247 81.2275 27.9915C78.3944 20.9784 71.5349 16.0128 63.4943 15.9734C60.7735 15.9612 58.1864 16.5163 55.8362 17.5204C54.0052 7.69531 45.4088 0.236277 35.0391 0.18471C23.2939 0.127076 13.7289 9.5942 13.6712 21.3242C13.6682 21.6427 13.6773 21.9582 13.6894 22.2706C13.4313 22.2524 13.1763 22.2282 12.9151 22.2282C6.07994 22.1948 0.511 27.7034 0.477598 34.5345C0.444197 41.3656 5.9585 46.9258 12.7967 46.9592C13.4222 46.9622 14.0356 46.9046 14.6368 46.8166C15.3049 52.7408 20.3121 57.3606 26.4276 57.3879C30.5998 57.4091 34.2739 55.2827 36.4238 52.0552C38.0848 53.2473 40.1131 53.9632 42.3116 53.9753C45.7975 53.9935 48.8795 52.2554 50.7288 49.5951C54.0902 52.5436 58.4871 54.3454 63.3121 54.3697C68.4256 54.3939 73.0805 52.4162 76.5391 49.1796C78.5158 50.6599 80.9603 51.5547 83.6233 51.5668C90.2125 51.5972 95.578 46.2888 95.6114 39.7064C95.6418 33.1301 90.3249 27.7671 83.7356 27.7367Z" fill="white"/>
</svg>
