<svg width="113" height="96" viewBox="0 0 113 96" fill="none" xmlns="http://www.w3.org/2000/svg">
<path id="Vector" d="M143.341 43.5201C141.586 43.5201 139.901 43.7947 138.314 44.2928C137.174 33.4699 128.009 25.0311 116.869 25.0311C113.857 25.0311 110.991 25.6513 108.386 26.7647C108.416 26.2715 108.462 25.7835 108.462 25.2802C108.462 11.6461 97.3991 0.59436 83.7508 0.59436C72.7385 0.59436 63.4157 7.7978 60.225 17.7413C58.3778 17.0347 56.383 16.6331 54.2864 16.6331C47.167 16.6331 41.1062 21.0965 38.7094 27.3696C36.2158 25.8903 33.3152 25.021 30.2059 25.021C20.9951 25.021 13.5246 32.4837 13.5246 41.685C13.5246 43.9014 13.9674 46.0162 14.7561 47.953C6.23738 51.0794 0.151123 59.2335 0.151123 68.8262C0.151123 81.1183 10.1253 91.0821 22.4301 91.0821C29.1983 91.0821 35.254 88.0574 39.3404 83.2941C44.6481 87.8083 51.5231 90.5433 59.0394 90.5433C62.6982 90.5433 66.2044 89.8977 69.4562 88.7132C74.3059 93.2122 80.7942 95.9675 87.9339 95.9675C97.7706 95.9675 106.386 90.7466 111.154 82.923C113.724 84.5396 116.757 85.4902 120.019 85.4902C127.082 85.4902 133.108 81.098 135.54 74.9011C137.866 76.1313 140.517 76.838 143.336 76.838C152.547 76.838 160.018 69.3803 160.018 60.174C160.018 50.9778 152.552 43.5201 143.341 43.5201Z" fill="white"/>
</svg>
